<?xml version="1.0" encoding="utf-8"?>
<!-- Generator: Adobe Illustrator 16.0.0, SVG Export Plug-In . SVG Version: 6.00 Build 0)  -->
<!DOCTYPE svg PUBLIC "-//W3C//DTD SVG 1.1//EN" "http://www.w3.org/Graphics/SVG/1.1/DTD/svg11.dtd">
<svg version="1.1" id="Capa_1" xmlns="http://www.w3.org/2000/svg" xmlns:xlink="http://www.w3.org/1999/xlink" x="0px" y="0px"
	 width="120px" height="120px" viewBox="900 365 120 120" enable-background="new 900 365 120 120" xml:space="preserve">
<g>
	<g>
		<path fill="#168794" d="M986.017,438.643v-8.849l-3.734,1.453l-0.01-0.024l-0.09-0.162c-1.431-2.228-3.744-3.777-6.351-4.25
			l-8.986-1.635v-0.709c3.361-1.952,5.821-5.28,6.588-9.216c2.49-0.515,4.367-2.724,4.367-5.363v-13.525
			c0-3.822-2.504-7.155-6.134-8.24l-0.685-0.684c-3.186-3.186-7.42-4.938-11.923-4.938c-9.296,0-16.861,7.563-16.861,16.86v10.526
			c0,2.64,1.878,4.849,4.368,5.363c0.768,3.936,3.227,7.266,6.587,9.216v0.709l-8.984,1.633c-2.604,0.473-4.916,2.021-6.349,4.247
			l-0.082,0.199l-3.756-1.461v8.849c-2.265,0-4.108,1.844-4.108,4.107v5.478c0,2.266,1.843,4.109,4.108,4.109v5.043L960,467.5
			l26.017-10.12v-5.043c2.266,0,4.108-1.844,4.108-4.109v-5.478C990.125,440.486,988.282,438.643,986.017,438.643z M969.412,428.426
			l5.93,1.078c1.745,0.317,3.291,1.325,4.323,2.761l-13.248,5.151L969.412,428.426z M956.008,425.723
			c1.264,0.386,2.604,0.596,3.992,0.596c1.389,0,2.727-0.21,3.992-0.596L960,428.715L956.008,425.723z M957.916,430.575
			l-2.795,2.793l-1.813-5.438l0.873-0.157L957.916,430.575z M965.819,427.774l0.872,0.158l-1.813,5.437l-2.795-2.793
			L965.819,427.774z M973.693,412.245v-4.716c0.814,0.475,1.368,1.349,1.368,2.358S974.508,411.77,973.693,412.245z
			 M946.306,412.245c-0.815-0.475-1.37-1.349-1.37-2.358s0.555-1.883,1.37-2.358V412.245z M946.306,403.04v1.564
			c-0.487,0.127-0.944,0.319-1.37,0.566v-5.81c0-7.786,6.335-14.122,14.123-14.122c3.77,0,7.319,1.469,9.987,4.137l1.208,1.209
			l0.368,0.09c2.614,0.653,4.439,2.992,4.439,5.687v8.809c-0.424-0.248-0.881-0.441-1.368-0.566v-1.564h-4.343
			c-3.711,0-7.258-1.771-9.482-4.739l-1.089-1.455l-2.721,2.723c-2.24,2.239-5.217,3.471-8.383,3.471H946.306z M949.045,412.625
			v-6.909c3.381-0.314,6.518-1.78,8.95-4.21l0.533-0.533c2.746,3.03,6.7,4.806,10.823,4.806h1.604v6.847
			c0,6.041-4.914,10.955-10.955,10.955C953.959,423.58,949.045,418.666,949.045,412.625z M944.658,429.504l5.929-1.078l2.996,8.99
			l-13.251-5.152C941.363,430.826,942.912,429.821,944.658,429.504z M932.613,448.228v-5.478c0-0.755,0.615-1.368,1.37-1.368
			c2.265,0,4.108,1.843,4.108,4.107c0,2.266-1.843,4.108-4.108,4.108C933.228,449.598,932.613,448.984,932.613,448.228z
			 M958.63,464.027l-21.909-8.519v-3.753c2.414-1.061,4.108-3.466,4.108-6.267c0-2.8-1.694-5.206-4.108-6.266v-5.426l21.909,8.52
			V464.027z M954.564,437.799l5.435-5.436l5.434,5.435L960,439.912L954.564,437.799z M983.278,455.508l-21.91,8.519v-21.709
			l21.91-8.52v5.426c-2.414,1.06-4.107,3.466-4.107,6.266c0,2.801,1.693,5.206,4.107,6.267V455.508z M987.387,448.228
			c0,0.757-0.615,1.37-1.37,1.37c-2.265,0-4.107-1.843-4.107-4.108c0-2.265,1.843-4.107,4.107-4.107c0.755,0,1.37,0.613,1.37,1.368
			V448.228z"/>
	</g>
</g>
</svg>
