<?xml version="1.0" encoding="utf-8"?>
<!-- Generator: Adobe Illustrator 22.0.1, SVG Export Plug-In . SVG Version: 6.00 Build 0)  -->
<svg version="1.1" id="Calque_1" xmlns="http://www.w3.org/2000/svg" xmlns:xlink="http://www.w3.org/1999/xlink" x="0px" y="0px"
	 viewBox="0 0 104.9 104.9" style="enable-background:new 0 0 104.9 104.9;" xml:space="preserve">
<style type="text/css">
	.st0{fill:#F02841;}
	
		.st1{clip-path:url(#SVGID_2_);fill:none;stroke:#FFFFFF;stroke-width:2;stroke-linecap:round;stroke-linejoin:round;stroke-miterlimit:22.926;}
	
		.st2{clip-path:url(#SVGID_4_);fill:none;stroke:#FFFFFF;stroke-width:2;stroke-linecap:round;stroke-linejoin:round;stroke-miterlimit:22.926;}
	
		.st3{clip-path:url(#SVGID_6_);fill:none;stroke:#FFFFFF;stroke-width:2;stroke-linecap:round;stroke-linejoin:round;stroke-miterlimit:22.926;}
	
		.st4{clip-path:url(#SVGID_8_);fill:none;stroke:#FFFFFF;stroke-width:2;stroke-linecap:round;stroke-linejoin:round;stroke-miterlimit:22.926;}
	.st5{fill:#FFFFFF;}
	.st6{fill:none;stroke:#FFFFFF;stroke-width:2;stroke-linecap:round;stroke-linejoin:round;stroke-miterlimit:22.926;}
	
		.st7{clip-path:url(#SVGID_10_);fill:none;stroke:#FFFFFF;stroke-width:2;stroke-linecap:round;stroke-linejoin:round;stroke-miterlimit:22.926;}
	.st8{clip-path:url(#SVGID_12_);}
	
		.st9{clip-path:url(#SVGID_12_);fill:none;stroke:#FFFFFF;stroke-width:2.25;stroke-linecap:round;stroke-linejoin:round;stroke-miterlimit:22.926;}
	
		.st10{clip-path:url(#SVGID_16_);fill:none;stroke:#FFFFFF;stroke-width:2;stroke-linecap:round;stroke-linejoin:round;stroke-miterlimit:22.926;}
	
		.st11{clip-path:url(#SVGID_18_);fill:none;stroke:#FFFFFF;stroke-width:2;stroke-linecap:round;stroke-linejoin:round;stroke-miterlimit:22.926;}
	
		.st12{clip-path:url(#SVGID_20_);fill:none;stroke:#FFFFFF;stroke-width:2;stroke-linecap:round;stroke-linejoin:round;stroke-miterlimit:22.926;}
	.st13{clip-path:url(#SVGID_22_);}
	
		.st14{clip-path:url(#SVGID_22_);fill:none;stroke:#FFFFFF;stroke-width:2;stroke-linecap:round;stroke-linejoin:round;stroke-miterlimit:22.926;}
	.st15{clip-path:url(#SVGID_22_);fill:#F02841;}
	
		.st16{clip-path:url(#SVGID_26_);fill:none;stroke:#FFFFFF;stroke-width:2;stroke-linecap:round;stroke-linejoin:round;stroke-miterlimit:22.926;}
</style>
<g>
	<g>
		<path class="st0" d="M52.5,103.9c28.2,0,51-22.9,51-51c0-28.2-22.9-51-51-51c-28.2,0-51,22.9-51,51
			C1.5,81.1,24.3,103.9,52.5,103.9"/>
	</g>
	<g>
		<defs>
			<path id="SVGID_5_" d="M1.5,52.9c0,28.2,22.9,51,51,51c28.2,0,51-22.9,51-51c0-28.2-22.9-51-51-51C24.3,1.8,1.5,24.7,1.5,52.9"/>
		</defs>
		<clipPath id="SVGID_2_">
			<use xlink:href="#SVGID_5_"  style="overflow:visible;"/>
		</clipPath>
		<path class="st1" d="M52.5,53.9v2.4 M80.1,46.8l-3.6-0.1c-7.2-0.2,0.7,15.9-7.5,15.7c-0.2,0-2.7,0-2.9,0 M25,46.8l3.6-0.1
			c7.2-0.2-0.7,15.9,7.5,15.7c0.2,0,2.7,0,2.9,0 M39.5,75.4c0.7-1.1,1.7-2.1,3-2.9c1.3-0.8,2.8-1.5,4.5-2c1.7-0.5,3.5-0.7,5.5-0.7
			c1.9,0,3.8,0.3,5.5,0.7c1.7,0.5,3.2,1.1,4.5,2c1.3,0.8,2.3,1.8,3,2.9 M52.5,62.5V76 M66.5,76.3c1.3,0,2.4,1,2.4,2.3
			S67.8,81,66.5,81s-2.4-1-2.4-2.3S65.2,76.3,66.5,76.3z M52.5,76.3c1.3,0,2.4,1,2.4,2.3S53.8,81,52.5,81c-1.3,0-2.4-1-2.4-2.3
			S51.2,76.3,52.5,76.3z M38.5,76.3c1.3,0,2.4,1,2.4,2.3S39.9,81,38.5,81s-2.4-1-2.4-2.3S37.2,76.3,38.5,76.3z M40,56.3h25
			c1.3,0,2.4,1.1,2.4,2.3v1.4c0,1.3-1.1,2.3-2.4,2.3H40c-1.3,0-2.4-1.1-2.4-2.3v-1.4C37.6,57.4,38.7,56.3,40,56.3z M46.7,52.7h11.7
			c5.5,0,10.9-4.5,10-9.7L66,30.5c-0.6-3.1-2.6-5.7-5.8-5.7H44.8c-3.2,0-5.2,2.6-5.8,5.7l-2.3,12.5C35.7,48.2,41.2,52.7,46.7,52.7z"
			/>
	</g>
</g>
</svg>
