<?xml version="1.0" encoding="utf-8"?>
<!-- Generator: Adobe Illustrator 22.0.1, SVG Export Plug-In . SVG Version: 6.00 Build 0)  -->
<svg version="1.1" id="Calque_1" xmlns="http://www.w3.org/2000/svg" xmlns:xlink="http://www.w3.org/1999/xlink" x="0px" y="0px"
	 viewBox="0 0 104.9 104.9" style="enable-background:new 0 0 104.9 104.9;" xml:space="preserve">
<style type="text/css">
	.st0{fill:#F02841;}
	
		.st1{clip-path:url(#SVGID_2_);fill:none;stroke:#FFFFFF;stroke-width:2;stroke-linecap:round;stroke-linejoin:round;stroke-miterlimit:22.926;}
	
		.st2{clip-path:url(#SVGID_4_);fill:none;stroke:#FFFFFF;stroke-width:2;stroke-linecap:round;stroke-linejoin:round;stroke-miterlimit:22.926;}
	
		.st3{clip-path:url(#SVGID_6_);fill:none;stroke:#FFFFFF;stroke-width:2;stroke-linecap:round;stroke-linejoin:round;stroke-miterlimit:22.926;}
	
		.st4{clip-path:url(#SVGID_8_);fill:none;stroke:#FFFFFF;stroke-width:2;stroke-linecap:round;stroke-linejoin:round;stroke-miterlimit:22.926;}
	.st5{fill:#FFFFFF;}
	.st6{fill:none;stroke:#FFFFFF;stroke-width:2;stroke-linecap:round;stroke-linejoin:round;stroke-miterlimit:22.926;}
	
		.st7{clip-path:url(#SVGID_10_);fill:none;stroke:#FFFFFF;stroke-width:2;stroke-linecap:round;stroke-linejoin:round;stroke-miterlimit:22.926;}
	.st8{clip-path:url(#SVGID_12_);}
	
		.st9{clip-path:url(#SVGID_12_);fill:none;stroke:#FFFFFF;stroke-width:2.25;stroke-linecap:round;stroke-linejoin:round;stroke-miterlimit:22.926;}
	
		.st10{clip-path:url(#SVGID_16_);fill:none;stroke:#FFFFFF;stroke-width:2;stroke-linecap:round;stroke-linejoin:round;stroke-miterlimit:22.926;}
	
		.st11{clip-path:url(#SVGID_18_);fill:none;stroke:#FFFFFF;stroke-width:2;stroke-linecap:round;stroke-linejoin:round;stroke-miterlimit:22.926;}
	
		.st12{clip-path:url(#SVGID_20_);fill:none;stroke:#FFFFFF;stroke-width:2;stroke-linecap:round;stroke-linejoin:round;stroke-miterlimit:22.926;}
	.st13{clip-path:url(#SVGID_22_);}
	
		.st14{clip-path:url(#SVGID_22_);fill:none;stroke:#FFFFFF;stroke-width:2;stroke-linecap:round;stroke-linejoin:round;stroke-miterlimit:22.926;}
	.st15{clip-path:url(#SVGID_22_);fill:#F02841;}
	
		.st16{clip-path:url(#SVGID_26_);fill:none;stroke:#FFFFFF;stroke-width:2;stroke-linecap:round;stroke-linejoin:round;stroke-miterlimit:22.926;}
</style>
<g>
	<g>
		<path class="st0" d="M52.4,103.9c28.2,0,51-22.9,51-51c0-28.2-22.9-51-51-51c-28.2,0-51,22.9-51,51
			C1.4,81.1,24.3,103.9,52.4,103.9"/>
	</g>
	<g>
		<defs>
			<path id="SVGID_21_" d="M1.4,52.9c0,28.2,22.9,51,51,51c28.2,0,51-22.9,51-51c0-28.2-22.9-51-51-51C24.3,1.8,1.4,24.7,1.4,52.9"
				/>
		</defs>
		<clipPath id="SVGID_2_">
			<use xlink:href="#SVGID_21_"  style="overflow:visible;"/>
		</clipPath>
		<g style="clip-path:url(#SVGID_2_);">
			<g>
				<defs>
					<rect id="SVGID_23_" x="21.4" y="32.2" width="62" height="14.9"/>
				</defs>
				<clipPath id="SVGID_4_">
					<use xlink:href="#SVGID_23_"  style="overflow:visible;"/>
				</clipPath>
			</g>
		</g>
		<rect x="23.4" y="34.2" class="st1" width="58" height="10.9"/>
		<path style="clip-path:url(#SVGID_2_);fill:#F02841;" d="M72.4,42.8L52.3,54.9L36.5,37.6 M34.1,54.5l2.4-16.9l35.9,5.2L69,66.3
			l-4.1-0.6 M64.9,55.2L46.8,70L28.6,55.2 M28.6,55.2h36.3V79H28.6V55.2z"/>
		<path class="st1" d="M72.4,42.8L52.3,54.9L36.5,37.6 M34.1,54.5l2.4-16.9l35.9,5.2L69,66.3l-4.1-0.6 M64.9,55.2L46.8,70L28.6,55.2
			 M28.6,55.2h36.3V79H28.6V55.2z"/>
	</g>
</g>
</svg>
