<?xml version="1.0" encoding="utf-8"?>
<!-- Generator: Adobe Illustrator 22.0.1, SVG Export Plug-In . SVG Version: 6.00 Build 0)  -->
<svg version="1.1" id="Calque_1" xmlns="http://www.w3.org/2000/svg" xmlns:xlink="http://www.w3.org/1999/xlink" x="0px" y="0px"
	 viewBox="0 0 104.9 104.9" style="enable-background:new 0 0 104.9 104.9;" xml:space="preserve">
<style type="text/css">
	.st0{fill:#F02841;}
	
		.st1{clip-path:url(#SVGID_2_);fill:none;stroke:#FFFFFF;stroke-width:2;stroke-linecap:round;stroke-linejoin:round;stroke-miterlimit:22.926;}
	
		.st2{clip-path:url(#SVGID_4_);fill:none;stroke:#FFFFFF;stroke-width:2;stroke-linecap:round;stroke-linejoin:round;stroke-miterlimit:22.926;}
	
		.st3{clip-path:url(#SVGID_6_);fill:none;stroke:#FFFFFF;stroke-width:2;stroke-linecap:round;stroke-linejoin:round;stroke-miterlimit:22.926;}
	
		.st4{clip-path:url(#SVGID_8_);fill:none;stroke:#FFFFFF;stroke-width:2;stroke-linecap:round;stroke-linejoin:round;stroke-miterlimit:22.926;}
	.st5{fill:#FFFFFF;}
	.st6{fill:none;stroke:#FFFFFF;stroke-width:2;stroke-linecap:round;stroke-linejoin:round;stroke-miterlimit:22.926;}
	
		.st7{clip-path:url(#SVGID_10_);fill:none;stroke:#FFFFFF;stroke-width:2;stroke-linecap:round;stroke-linejoin:round;stroke-miterlimit:22.926;}
	.st8{clip-path:url(#SVGID_12_);}
	
		.st9{clip-path:url(#SVGID_12_);fill:none;stroke:#FFFFFF;stroke-width:2.25;stroke-linecap:round;stroke-linejoin:round;stroke-miterlimit:22.926;}
	
		.st10{clip-path:url(#SVGID_16_);fill:none;stroke:#FFFFFF;stroke-width:2;stroke-linecap:round;stroke-linejoin:round;stroke-miterlimit:22.926;}
	
		.st11{clip-path:url(#SVGID_18_);fill:none;stroke:#FFFFFF;stroke-width:2;stroke-linecap:round;stroke-linejoin:round;stroke-miterlimit:22.926;}
	
		.st12{clip-path:url(#SVGID_20_);fill:none;stroke:#FFFFFF;stroke-width:2;stroke-linecap:round;stroke-linejoin:round;stroke-miterlimit:22.926;}
	.st13{clip-path:url(#SVGID_22_);}
	
		.st14{clip-path:url(#SVGID_22_);fill:none;stroke:#FFFFFF;stroke-width:2;stroke-linecap:round;stroke-linejoin:round;stroke-miterlimit:22.926;}
	.st15{clip-path:url(#SVGID_22_);fill:#F02841;}
	
		.st16{clip-path:url(#SVGID_26_);fill:none;stroke:#FFFFFF;stroke-width:2;stroke-linecap:round;stroke-linejoin:round;stroke-miterlimit:22.926;}
</style>
<g>
	<g>
		<path class="st0" d="M52.4,103.4c28.2,0,51-22.9,51-51c0-28.2-22.9-51-51-51c-28.2,0-51,22.9-51,51
			C1.3,80.5,24.2,103.4,52.4,103.4"/>
	</g>
	<g>
		<defs>
			<path id="SVGID_1_" d="M1.3,52.4c0,28.2,22.9,51,51,51c28.2,0,51-22.9,51-51c0-28.2-22.9-51-51-51C24.2,1.3,1.3,24.2,1.3,52.4"/>
		</defs>
		<clipPath id="SVGID_2_">
			<use xlink:href="#SVGID_1_"  style="overflow:visible;"/>
		</clipPath>
		<path class="st1" d="M67.6,62.6c3.1-3.9,0.9-8,0.9-14.1c0-11.7-0.3-25-15.6-24.2c-15.3,0.8-15.8,9.5-15.8,21.2
			c0,7.3,0.1,12.9,2.4,16.1 M49.4,35.3c2.3,0,7.9-0.4,9.5-2.9c1.8,1.9,3.2,7.8,3.2,10.9c0,5.9-3.9,12.1-8.8,12.1
			c-4.9,0-8.9-4.8-8.9-10.6C44.3,39,44.4,35.3,49.4,35.3z M65.7,76.3h-6.9 M46.7,59.6l-5.1,2c-9.1,3.6-11,7.5-8.4,18.8 M71.8,80.4
			c2.2-12.1-0.3-17-13.2-20.7 M48.6,54.3c0.1,1.4-0.2,3.3-1.4,4.8c-0.1,0.2-0.3,0.3-0.4,0.5l5.7,14.1l6.2-13.9
			c-0.2-0.2-0.5-0.4-0.6-0.6c-1.1-1.3-1.3-3.3-1.2-4.8"/>
	</g>
</g>
</svg>
