<?xml version="1.0" encoding="utf-8"?>
<!-- Generator: Adobe Illustrator 22.0.1, SVG Export Plug-In . SVG Version: 6.00 Build 0)  -->
<svg version="1.1" id="Calque_1" xmlns="http://www.w3.org/2000/svg" xmlns:xlink="http://www.w3.org/1999/xlink" x="0px" y="0px"
	 viewBox="0 0 104.9 104.9" style="enable-background:new 0 0 104.9 104.9;" xml:space="preserve">
<style type="text/css">
	.st0{fill:#F02841;}
	
		.st1{clip-path:url(#SVGID_2_);fill:none;stroke:#FFFFFF;stroke-width:2;stroke-linecap:round;stroke-linejoin:round;stroke-miterlimit:22.926;}
	
		.st2{clip-path:url(#SVGID_4_);fill:none;stroke:#FFFFFF;stroke-width:2;stroke-linecap:round;stroke-linejoin:round;stroke-miterlimit:22.926;}
	
		.st3{clip-path:url(#SVGID_6_);fill:none;stroke:#FFFFFF;stroke-width:2;stroke-linecap:round;stroke-linejoin:round;stroke-miterlimit:22.926;}
	
		.st4{clip-path:url(#SVGID_8_);fill:none;stroke:#FFFFFF;stroke-width:2;stroke-linecap:round;stroke-linejoin:round;stroke-miterlimit:22.926;}
	.st5{fill:#FFFFFF;}
	.st6{fill:none;stroke:#FFFFFF;stroke-width:2;stroke-linecap:round;stroke-linejoin:round;stroke-miterlimit:22.926;}
	
		.st7{clip-path:url(#SVGID_10_);fill:none;stroke:#FFFFFF;stroke-width:2;stroke-linecap:round;stroke-linejoin:round;stroke-miterlimit:22.926;}
	.st8{clip-path:url(#SVGID_12_);}
	
		.st9{clip-path:url(#SVGID_12_);fill:none;stroke:#FFFFFF;stroke-width:2.25;stroke-linecap:round;stroke-linejoin:round;stroke-miterlimit:22.926;}
	
		.st10{clip-path:url(#SVGID_16_);fill:none;stroke:#FFFFFF;stroke-width:2;stroke-linecap:round;stroke-linejoin:round;stroke-miterlimit:22.926;}
	
		.st11{clip-path:url(#SVGID_18_);fill:none;stroke:#FFFFFF;stroke-width:2;stroke-linecap:round;stroke-linejoin:round;stroke-miterlimit:22.926;}
	
		.st12{clip-path:url(#SVGID_20_);fill:none;stroke:#FFFFFF;stroke-width:2;stroke-linecap:round;stroke-linejoin:round;stroke-miterlimit:22.926;}
	.st13{clip-path:url(#SVGID_22_);}
	
		.st14{clip-path:url(#SVGID_22_);fill:none;stroke:#FFFFFF;stroke-width:2;stroke-linecap:round;stroke-linejoin:round;stroke-miterlimit:22.926;}
	.st15{clip-path:url(#SVGID_22_);fill:#F02841;}
	
		.st16{clip-path:url(#SVGID_26_);fill:none;stroke:#FFFFFF;stroke-width:2;stroke-linecap:round;stroke-linejoin:round;stroke-miterlimit:22.926;}
</style>
<g>
	<g>
		<path class="st0" d="M52.4,103.9c28.2,0,51-22.9,51-51c0-28.2-22.9-51-51-51s-51,22.9-51,51C1.4,81.1,24.3,103.9,52.4,103.9"/>
	</g>
	<g>
		<defs>
			<path id="SVGID_11_" d="M1.4,52.9c0,28.2,22.9,51,51,51c28.2,0,51-22.9,51-51c0-28.2-22.9-51-51-51C24.3,1.8,1.4,24.7,1.4,52.9"
				/>
		</defs>
		<clipPath id="SVGID_2_">
			<use xlink:href="#SVGID_11_"  style="overflow:visible;"/>
		</clipPath>
		<g style="clip-path:url(#SVGID_2_);">
			<g>
				<defs>
					<rect id="SVGID_13_" x="27.7" y="31.5" width="49.6" height="42.8"/>
				</defs>
				<clipPath id="SVGID_4_">
					<use xlink:href="#SVGID_13_"  style="overflow:visible;"/>
				</clipPath>
			</g>
		</g>
		
			<path style="clip-path:url(#SVGID_2_);fill:none;stroke:#FFFFFF;stroke-width:2.25;stroke-linecap:round;stroke-linejoin:round;stroke-miterlimit:22.926;" d="
			M51.8,64.2c2.2,0,3.9,1.8,3.9,4c0,2.2-1.8,4-3.9,4c-2.2,0-3.9-1.8-3.9-4C47.8,66,49.6,64.2,51.8,64.2z M36.8,51.1
			c0.9-1.2,2-2.2,3.1-3.1c3.7-3,8.4-4.3,12.9-4.2c4.5,0.1,9,1.7,12.4,4.4c1.1,0.8,2,1.8,2.9,2.9 M42.8,58.9c0.8-1.1,1.7-2,2.7-2.7
			c2.1-1.5,4.6-2.2,7.1-2.2c2.4,0.1,4.9,0.9,6.8,2.3c1,0.7,1.9,1.6,2.6,2.6 M29.8,45.1c1.8-2.6,4-4.7,6.3-6.4
			c9.7-7.1,23.4-6.7,33,0.3c2.3,1.7,4.3,3.7,6,6.1"/>
	</g>
</g>
</svg>
